<svg id="Capa_1" data-name="Capa 1" xmlns="http://www.w3.org/2000/svg" viewBox="0 0 208.42 58.36"><defs><style>.cls-1{fill:#282826;}.cls-2{fill:#fff;}.cls-3{fill:#ccc31c;}.cls-4{fill:none;}</style></defs><title>asdasd</title><rect class="cls-1" width="208.42" height="58.36"/><path class="cls-2" d="M198.17,32.25v.06c0,3.87-2.95,6-7.15,6a12.4,12.4,0,0,1-8.2-3.06l2.49-3a8.94,8.94,0,0,0,5.81,2.36c1.75,0,2.81-.7,2.81-1.84v0a2.83,2.83,0,0,0,0-.29.24.24,0,0,0,0-.09c-.12-.91-.94-1.44-3.9-2.2-3.43-.88-5.8-1.82-6.33-4.63a4.51,4.51,0,0,1-.08-.53c0-.23,0-.45,0-.7v-.05c0-3.54,2.84-5.87,6.82-5.87a11.26,11.26,0,0,1,7.18,2.43L195.36,24a9.19,9.19,0,0,0-5.06-1.92c-1.64,0-2.51.75-2.51,1.69v.06a2.06,2.06,0,0,0,.05.45.06.06,0,0,0,0,0c.17,1,1.15,1.41,4.16,2.18,3.46.9,5.6,2.1,6.08,4.65a3.55,3.55,0,0,1,.06.47c0,.2,0,.4,0,.61"/><path class="cls-2" d="M180.42,28.28v.06a10.39,10.39,0,0,1-20.5,2.07c-.06-.29-.11-.6-.14-.89s-.05-.68-.05-1v0a10.39,10.39,0,0,1,20.5-2.08,8.46,8.46,0,0,1,.14.9c0,.33,0,.67,0,1m-4.46.21v0a6.24,6.24,0,0,0-.14-1.3,3.1,3.1,0,0,0-.11-.51,5.85,5.85,0,0,0-11.52,1.65v.06a6.8,6.8,0,0,0,.13,1.29,4.7,4.7,0,0,0,.12.51A5.85,5.85,0,0,0,176,28.49"/><polygon class="cls-2" points="158.13 18.7 158.13 22.55 152.2 22.55 152.2 38.08 147.93 38.08 147.93 22.65 147.91 22.65 147.91 22.55 142.01 22.55 142.01 18.7 158.13 18.7"/><path class="cls-2" d="M140.21,25.33v.05c0,4.51-3.51,6.84-7.88,6.84h-3.25v5.86H124.8V18.7h8c4.06,0,6.72,2.11,7.32,5.29q.06.3.09.6c0,.24,0,.48,0,.74m-4.33.24v-.05a3.19,3.19,0,0,0,0-.45.88.88,0,0,0,0-.24c-.25-1.55-1.52-2.37-3.43-2.37h-3.31v6h0v.1h3.4c2.14,0,3.39-1.28,3.39-2.95"/><polygon class="cls-2" points="120.98 34.36 120.98 38.08 106.16 38.08 106.16 18.7 120.84 18.7 120.84 22.41 110.4 22.41 110.4 26.35 110.42 26.35 110.42 26.46 119.59 26.46 119.59 30.17 110.4 30.17 110.4 34.26 110.42 34.26 110.42 34.36 120.98 34.36"/><path class="cls-2" d="M100,32.28,102.68,35a9.94,9.94,0,0,1-8,3.44,9.8,9.8,0,0,1-9.79-8,6.79,6.79,0,0,1-.12-.89,8.94,8.94,0,0,1-.06-1v0A9.91,9.91,0,0,1,94.92,18.36a10,10,0,0,1,7.62,2.95l-2.68,3.1a7.2,7.2,0,0,0-5-2.2,5.78,5.78,0,0,0-5.65,6.07v.06a6.9,6.9,0,0,0,.13,1.3c0,.17.07.34.11.5a5.56,5.56,0,0,0,5.43,4.41A7,7,0,0,0,100,32.28"/><polygon class="cls-2" points="80.93 18.7 80.93 38.08 77.29 38.08 67.85 25.69 67.85 38.08 63.64 38.08 63.64 18.7 67.59 18.7 76.72 30.69 76.72 18.7 80.93 18.7"/><path class="cls-2" d="M59.81,28.28v0A10.08,10.08,0,0,1,49.43,38.41a10.38,10.38,0,0,1-7.36-2.89l3-3a5.72,5.72,0,0,0,4.44,2,5.81,5.81,0,0,0,5.84-6.06v0a5.85,5.85,0,0,0,0-.73,4,4,0,0,0-.07-.5,5.84,5.84,0,0,0-5.8-5,5.65,5.65,0,0,0-4.33,1.92l-2.91-2.92a10.39,10.39,0,0,1,7.31-2.85,10,10,0,0,1,10.13,8,8.67,8.67,0,0,1,.13.89,8.77,8.77,0,0,1,.05,1"/><path class="cls-3" d="M49.28,28.31,45.1,32.48a6,6,0,0,1-1.26-2.34,4.7,4.7,0,0,1-.12-.51,5.86,5.86,0,0,1-.11-1.19v-.06a6.22,6.22,0,0,1,1.55-4.19Z"/><path class="cls-2" d="M42.19,21.21l2.91,2.92a6.2,6.2,0,0,0-1.51,4.15v0a6.16,6.16,0,0,0,.13,1.3,4.7,4.7,0,0,0,.12.51,6.06,6.06,0,0,0,1.22,2.38l-3,3a9.72,9.72,0,0,1-2.66-4.63,7.88,7.88,0,0,1-.17-.87,9.67,9.67,0,0,1-.11-1.53v0a9.88,9.88,0,0,1,3.06-7.23"/><polygon class="cls-2" points="35.55 32.36 39.57 36.45 39.27 36.48 39.3 36.43 35.41 32.46 35.55 32.36"/><path class="cls-2" d="M39.57,36.46l-.13.17,0,0A16.68,16.68,0,0,1,38,38c.57-.64,1-1.13,1.18-1.4l0,0,.09-.11Z"/><path class="cls-2" d="M39.15,36.63c-.2.27-.61.76-1.18,1.4A12.09,12.09,0,0,1,29.58,41c-.31,0-.62,0-.93,0l.66,0a12.33,12.33,0,0,0,9.84-4.31"/><path class="cls-3" d="M37.6,40l-7.84,7.82-3.29-3.29c4.18.19,8.07-2.76,10.5-5.15Z"/><path class="cls-2" d="M35.16,24.1l.08.2-.14-.14Z"/><path class="cls-3" d="M40.27,19.3l1.85,1.85a9.91,9.91,0,0,0-3,7.19v.05A9.69,9.69,0,0,0,39.23,30c.05.3.11.59.17.88A9.71,9.71,0,0,0,42,35.56L37.59,40,37,39.38a27.94,27.94,0,0,0,2.44-2.72l0,0,.13-.17-.14-.15-3.89-4-.14.1-.12-.12-.17.12C33.35,34.08,31.86,35,29.48,35h-.43l-.14,0c-3.05-.42-5.24-3.12-5.24-6.63v-.07c0-.26,0-.52,0-.78a6,6,0,0,1,4.85-1.91l.22,0,.73.14a10.32,10.32,0,0,1,1.26.42l.51.23a7.61,7.61,0,0,1,1,.58l.09-.09a1.15,1.15,0,0,1,.17.11l2.71-2.7,4.41-4.39Z"/><path class="cls-3" d="M40.27,19.3l-.62.61-.39-.39a12.07,12.07,0,0,0-7.62-3.65l-.44,0a15.44,15.44,0,0,0-1.69-.08,13.21,13.21,0,0,0-5,1,11.78,11.78,0,0,0-1.63.81l-.51.32a11.2,11.2,0,0,0-1.85,1.51l-.66-.65,9.9-9.9Z"/><path class="cls-2" d="M39.65,19.91l-4.41,4.4-.08-.21,4.23-4.21-.39-.4a15,15,0,0,0-1.64-1.4,10.57,10.57,0,0,0-1.3-.83,7,7,0,0,0-.83-.4,5.38,5.38,0,0,0-.55-.24q-.47-.18-1-.33c-.33-.09-.67-.18-1-.25s-.71-.13-1.07-.17a12.07,12.07,0,0,1,7.62,3.65Z"/><path class="cls-2" d="M39.43,36.31l-.13.13-1.58.14H31a9.54,9.54,0,0,1-5.21-1.53l0,0c-2-1.74-4.42-4.63-2.34-7.19,0,.15,0,.28,0,.43v.07c0,3.6,2.33,6.36,5.51,6.65l.14,0h.16a4.71,4.71,0,0,0,.53,0c2.38,0,3.86-.94,5.63-2.56l0,0,.14-.1Z"/><path class="cls-2" d="M39,19.49l.39.4L35.16,24.1,33.91,21h0l-3.7-.38H30.1l-.36,0-3.49-.36a20.82,20.82,0,0,0-2.6.79,13.76,13.76,0,0,0-1.74.6,14.21,14.21,0,0,0-1.66.82,12.47,12.47,0,0,0-1.33.91,8.44,8.44,0,0,0-1.15,1.08,12.25,12.25,0,0,1,12-8.63c.49,0,1,0,1.43.05l.44,0c.36,0,.72.1,1.07.17s.68.16,1,.25.65.21,1,.33a5.38,5.38,0,0,1,.55.24,7.93,7.93,0,0,1,.83.4,11.9,11.9,0,0,1,1.3.83A15,15,0,0,1,39,19.49Z"/><path class="cls-2" d="M39.3,36.44l0,.05L38,36.6H27.85a18.66,18.66,0,0,1-2.06-1.55A9.54,9.54,0,0,0,31,36.58h6.72Z"/><path class="cls-2" d="M39.26,36.49l-.09.12,0,0a12.33,12.33,0,0,1-9.83,4.3h-.66l-.45,0a12.17,12.17,0,0,1-11-12.47v-.07A13.46,13.46,0,0,1,17.61,25c1.37-2,4-3.25,6-4a15.4,15.4,0,0,1,5.74-.46l.35,0,.36,0h.11l.21,0A6,6,0,0,1,33,21.73a2,2,0,0,1,.33.25l.23.21a4,4,0,0,1,.41.42,4.27,4.27,0,0,1,.45.6,4.61,4.61,0,0,1,.38.65,7.85,7.85,0,0,0-4.51-2.16H30.1a4.4,4.4,0,0,0-.62,0,6.15,6.15,0,0,0-6,5.84c-1.73,1.77-1.15,3.72,0,5.37A9,9,0,0,0,25.76,35l0,0a18.66,18.66,0,0,0,2.06,1.55H38Z"/><path class="cls-3" d="M35.4,32.46l0,0c-1.77,1.62-3.25,2.56-5.63,2.56a4.71,4.71,0,0,1-.53,0h.27c2.38,0,3.87-.94,5.63-2.56l.17-.12Z"/><path class="cls-2" d="M33.91,21l1.25,3.1-.07.06-.3-.3a4.61,4.61,0,0,0-.38-.65,6.7,6.7,0,0,0-.45-.6,5.44,5.44,0,0,0-.41-.42L33.32,22,33,21.73a6,6,0,0,0-2.57-1.09Z"/><path class="cls-2" d="M34.79,23.86a4.61,4.61,0,0,0-.38-.65A4.61,4.61,0,0,1,34.79,23.86Z"/><path class="cls-2" d="M34.68,16.62q-.47-.18-1-.33Q34.21,16.44,34.68,16.62Z"/><path class="cls-2" d="M34.41,23.21a4.27,4.27,0,0,0-.45-.6A6.7,6.7,0,0,1,34.41,23.21Z"/><path class="cls-2" d="M34,22.61a4,4,0,0,0-.41-.42A5.44,5.44,0,0,1,34,22.61Z"/><path class="cls-2" d="M33.91,21h0l-3.49-.36-.21,0Z"/><path class="cls-2" d="M33.72,16.29c-.33-.09-.67-.18-1-.25C33.05,16.11,33.39,16.2,33.72,16.29Z"/><path class="cls-2" d="M33.32,22a2,2,0,0,0-.33-.25Z"/><path class="cls-2" d="M32.71,16c-.35-.07-.71-.13-1.07-.17C32,15.91,32.36,16,32.71,16Z"/><path class="cls-3" d="M32.36,26.9l-.09.09a7.61,7.61,0,0,0-1-.58c-.16-.08-.33-.16-.51-.23a7.75,7.75,0,0,0-1.26-.42l-.73-.14A8.29,8.29,0,0,1,32.36,26.9Z"/><path class="cls-3" d="M30.77,26.18c.18.07.35.15.51.23Z"/><path class="cls-2" d="M31.2,15.82c-.47,0-.94-.05-1.43-.05a12.25,12.25,0,0,0-12,8.63,4.17,4.17,0,0,0-.41.53,12.15,12.15,0,0,1,3.16-5.58,12.37,12.37,0,0,1,1.85-1.52l.51-.32a11.78,11.78,0,0,1,1.63-.81,13.21,13.21,0,0,1,5-1A15.44,15.44,0,0,1,31.2,15.82Z"/><path class="cls-3" d="M29.51,25.76a7.75,7.75,0,0,1,1.26.42A10.32,10.32,0,0,0,29.51,25.76Z"/><polygon class="cls-2" points="29.75 20.56 29.39 20.53 26.25 20.2 29.75 20.56"/><path class="cls-2" d="M26.25,20.2l3.14.33a15.4,15.4,0,0,0-5.74.46A20.82,20.82,0,0,1,26.25,20.2Z"/><path class="cls-3" d="M23.67,28.36c0,3.51,2.19,6.21,5.24,6.63-3.18-.29-5.51-3.05-5.51-6.65v-.07c0-.15,0-.28,0-.43h0c.09-.11.19-.22.29-.32,0,.26,0,.52,0,.78Z"/><path class="cls-2" d="M25.76,35a9,9,0,0,1-2.27-2.17c-1.2-1.65-1.78-3.6,0-5.37,0,.11,0,.22,0,.34h0C21.34,30.4,23.76,33.29,25.76,35Z"/><path class="cls-2" d="M21.91,21.59a13.76,13.76,0,0,1,1.74-.6c-2,.73-4.67,2-6,4,0-.19.1-.38.16-.57a8.44,8.44,0,0,1,1.15-1.08,11.19,11.19,0,0,1,1.34-.9A14.14,14.14,0,0,1,21.91,21.59Z"/><path class="cls-2" d="M20.25,22.41a14.21,14.21,0,0,1,1.66-.82,14.14,14.14,0,0,0-1.65.83,11.19,11.19,0,0,0-1.34.9A12.47,12.47,0,0,1,20.25,22.41Z"/><path class="cls-2" d="M17.18,28.43a12.17,12.17,0,0,0,11,12.47A12.18,12.18,0,0,1,16.92,28.41v-.07a13.22,13.22,0,0,1,.27-2.7c.13-.23.27-.45.42-.67a13.46,13.46,0,0,0-.43,3.39Z"/><path class="cls-3" d="M19.86,18.69l.66.66a12.15,12.15,0,0,0-3.16,5.58h0c-2.05,3-2.18,7.23-2.18,8.29l-4.92-4.92Z"/><path class="cls-2" d="M17.77,24.4c-.06.19-.12.38-.16.57s-.29.44-.42.67a5.65,5.65,0,0,1,.17-.71A4.17,4.17,0,0,1,17.77,24.4Z"/><rect class="cls-4" x="10.25" y="8.79" width="187.93" height="39.03"/><rect class="cls-4" x="10.25" y="8.79" width="187.93" height="39.03"/><path class="cls-2" d="M85.25,43.31a.28.28,0,0,1,.27-.28h1.41a2.4,2.4,0,0,1,2.56,2.4h0a2.41,2.41,0,0,1-2.56,2.41H85.52a.28.28,0,0,1-.27-.27Zm1.68,4a1.87,1.87,0,0,0,2-1.89v0a1.87,1.87,0,0,0-2-1.9H85.8v3.81Z"/><path class="cls-2" d="M90.54,43.18a.29.29,0,0,1,.31-.28.29.29,0,0,1,.32.28v.09a.3.3,0,0,1-.32.28.29.29,0,0,1-.31-.28Zm0,1.35a.27.27,0,1,1,.53,0v3.09a.26.26,0,0,1-.26.27.27.27,0,0,1-.27-.27Z"/><path class="cls-2" d="M92.16,47.47a.22.22,0,0,1-.1-.19.23.23,0,0,1,.23-.23.25.25,0,0,1,.13,0,2,2,0,0,0,1.13.38c.43,0,.74-.22.74-.56v0c0-.35-.42-.49-.89-.62s-1.17-.35-1.17-1h0a1.07,1.07,0,0,1,1.21-1,2.51,2.51,0,0,1,1.13.3.27.27,0,0,1,.13.22.23.23,0,0,1-.23.23.21.21,0,0,1-.12,0,1.91,1.91,0,0,0-.93-.27c-.42,0-.69.22-.69.52h0c0,.34.44.47.92.61s1.14.38,1.14,1h0a1.11,1.11,0,0,1-1.26,1.07A2.41,2.41,0,0,1,92.16,47.47Z"/><path class="cls-2" d="M97.33,47.93a1.77,1.77,0,0,1-1.78-1.85h0a1.76,1.76,0,0,1,1.71-1.85A1.67,1.67,0,0,1,98.91,46a.25.25,0,0,1-.25.25H96.09a1.24,1.24,0,0,0,1.25,1.2,1.47,1.47,0,0,0,1-.41.25.25,0,0,1,.15-.06.22.22,0,0,1,.23.22.22.22,0,0,1-.08.18A1.83,1.83,0,0,1,97.33,47.93Zm1-2a1.17,1.17,0,0,0-1.13-1.21,1.23,1.23,0,0,0-1.16,1.21Z"/><path class="cls-2" d="M99.84,44.53a.27.27,0,0,1,.27-.27.26.26,0,0,1,.26.27v.38a1.37,1.37,0,0,1,1.22-.69A1.3,1.3,0,0,1,103,45.64v2a.26.26,0,0,1-.26.27.27.27,0,0,1-.27-.27V45.77a.94.94,0,0,0-1-1.07,1.05,1.05,0,0,0-1.07,1.11v1.81a.26.26,0,0,1-.26.27.27.27,0,0,1-.27-.27Zm.66-.69a.18.18,0,0,1-.18-.17.52.52,0,0,1,0-.11c.14-.4.31-.55.61-.55s.68.27.92.27.23-.07.31-.24.09-.12.16-.12a.18.18,0,0,1,.18.17.52.52,0,0,1,0,.11c-.14.4-.31.56-.61.56s-.68-.28-.92-.28-.23.07-.31.24A.19.19,0,0,1,100.5,43.84Z"/><path class="cls-2" d="M103.86,46.09h0a1.86,1.86,0,0,1,3.71,0v0a1.84,1.84,0,0,1-1.87,1.85A1.82,1.82,0,0,1,103.86,46.09Zm3.17,0h0a1.35,1.35,0,0,0-1.33-1.39,1.31,1.31,0,0,0-1.3,1.37v0a1.34,1.34,0,0,0,1.32,1.38A1.32,1.32,0,0,0,107,46.09Z"/><path class="cls-2" d="M108.17,48.42a.56.56,0,0,0,.39-.57.32.32,0,0,1-.27-.33v-.11a.31.31,0,0,1,.31-.32.35.35,0,0,1,.34.38v.13a1.11,1.11,0,0,1-.25.83.85.85,0,0,1-.46.25.14.14,0,0,1-.15-.14A.13.13,0,0,1,108.17,48.42Z"/><path class="cls-2" d="M112,45.46v0A2.42,2.42,0,0,1,114.42,43a2.48,2.48,0,0,1,1.72.63.28.28,0,0,1,.11.22.28.28,0,0,1-.27.27.3.3,0,0,1-.18-.07,2,2,0,0,0-1.38-.55,1.89,1.89,0,0,0-1.87,2h0a1.9,1.9,0,0,0,1.87,2,2,2,0,0,0,1.43-.58.25.25,0,0,1,.17-.08.26.26,0,0,1,.26.26.23.23,0,0,1-.09.19,2.44,2.44,0,0,1-1.79.71A2.39,2.39,0,0,1,112,45.46Z"/><path class="cls-2" d="M116.89,46.09h0a1.86,1.86,0,0,1,3.71,0v0a1.84,1.84,0,0,1-1.87,1.85A1.82,1.82,0,0,1,116.89,46.09Zm3.16,0h0a1.34,1.34,0,0,0-1.32-1.39,1.31,1.31,0,0,0-1.3,1.37v0a1.34,1.34,0,0,0,1.32,1.38A1.31,1.31,0,0,0,120.05,46.09Z"/><path class="cls-2" d="M121.55,44.53a.27.27,0,1,1,.53,0v.38a1.36,1.36,0,0,1,1.22-.69,1.3,1.3,0,0,1,1.36,1.42v2a.27.27,0,1,1-.53,0V45.77a1,1,0,0,0-1-1.07,1,1,0,0,0-1.07,1.11v1.81a.26.26,0,0,1-.26.27.27.27,0,0,1-.27-.27Z"/><path class="cls-2" d="M125.59,47.47a.25.25,0,0,1-.09-.19.23.23,0,0,1,.23-.23.25.25,0,0,1,.13,0,2,2,0,0,0,1.13.38c.43,0,.74-.22.74-.56v0c0-.35-.42-.49-.89-.62s-1.18-.35-1.18-1h0a1.08,1.08,0,0,1,1.21-1,2.58,2.58,0,0,1,1.14.3.27.27,0,0,1,.13.22.23.23,0,0,1-.23.23.21.21,0,0,1-.12,0,1.94,1.94,0,0,0-.93-.27c-.42,0-.69.22-.69.52h0c0,.34.44.47.92.61s1.14.38,1.14,1h0c0,.68-.56,1.07-1.27,1.07A2.44,2.44,0,0,1,125.59,47.47Z"/><path class="cls-2" d="M129.4,46.91V44.76h-.29a.24.24,0,1,1,0-.47h.29v-.84a.26.26,0,0,1,.26-.26.27.27,0,0,1,.27.26v.84h.92a.24.24,0,0,1,.24.24.23.23,0,0,1-.24.23h-.92v2.08a.53.53,0,0,0,.6.59,1.46,1.46,0,0,0,.32,0,.24.24,0,0,1,.23.23.24.24,0,0,1-.16.21,1.35,1.35,0,0,1-.52.09A.9.9,0,0,1,129.4,46.91Z"/><path class="cls-2" d="M132,44.53a.27.27,0,1,1,.53,0v.67a1.46,1.46,0,0,1,1.22-1,.25.25,0,0,1,.26.26.26.26,0,0,1-.23.27,1.45,1.45,0,0,0-1.25,1.63v1.21a.27.27,0,1,1-.53,0Z"/><path class="cls-2" d="M137.82,47.62a.26.26,0,1,1-.52,0v-.39a1.36,1.36,0,0,1-1.22.7,1.3,1.3,0,0,1-1.36-1.43v-2a.26.26,0,0,1,.26-.27.28.28,0,0,1,.27.27v1.84a1,1,0,0,0,1,1.08,1.05,1.05,0,0,0,1.07-1.12v-1.8a.26.26,0,0,1,.26-.27.27.27,0,0,1,.26.27Z"/><path class="cls-2" d="M138.79,46.09h0a1.83,1.83,0,0,1,1.82-1.86,1.89,1.89,0,0,1,1.31.51.28.28,0,0,1,.08.19.25.25,0,0,1-.25.25.24.24,0,0,1-.17-.06,1.41,1.41,0,0,0-1-.42,1.31,1.31,0,0,0-1.28,1.37v0a1.33,1.33,0,0,0,1.31,1.38,1.44,1.44,0,0,0,1-.43.18.18,0,0,1,.15-.07.24.24,0,0,1,.24.24.24.24,0,0,1-.07.16,1.76,1.76,0,0,1-1.34.57A1.82,1.82,0,0,1,138.79,46.09Z"/><path class="cls-2" d="M142.67,46.09h0a1.85,1.85,0,0,1,3.13-1.35.25.25,0,0,1,.09.19.26.26,0,0,1-.26.25.24.24,0,0,1-.17-.06,1.37,1.37,0,0,0-1-.42,1.31,1.31,0,0,0-1.27,1.37v0a1.32,1.32,0,0,0,1.3,1.38,1.48,1.48,0,0,0,1-.43.18.18,0,0,1,.15-.07.24.24,0,0,1,.24.24.24.24,0,0,1-.07.16,1.78,1.78,0,0,1-1.34.57A1.83,1.83,0,0,1,142.67,46.09Z"/><path class="cls-2" d="M146.82,43.18a.29.29,0,0,1,.31-.28.29.29,0,0,1,.32.28v.09a.3.3,0,0,1-.32.28.29.29,0,0,1-.31-.28Zm.05,1.35a.26.26,0,0,1,.26-.27.27.27,0,0,1,.27.27v3.09a.27.27,0,1,1-.53,0Z"/><path class="cls-2" d="M148.41,46.09h0a1.86,1.86,0,0,1,3.71,0v0a1.84,1.84,0,0,1-1.87,1.85A1.82,1.82,0,0,1,148.41,46.09Zm3.16,0h0a1.34,1.34,0,0,0-1.32-1.39,1.31,1.31,0,0,0-1.3,1.37v0a1.34,1.34,0,0,0,1.32,1.38A1.31,1.31,0,0,0,151.57,46.09Zm-1.46-2.4a.21.21,0,0,1,0-.11l.41-.62a.31.31,0,0,1,.25-.16c.16,0,.37.11.37.21a.22.22,0,0,1-.1.15l-.51.49a.39.39,0,0,1-.33.13C150.17,43.78,150.11,43.74,150.11,43.69Z"/><path class="cls-2" d="M153.07,44.53a.27.27,0,1,1,.53,0v.38a1.34,1.34,0,0,1,1.22-.69,1.3,1.3,0,0,1,1.36,1.42v2a.27.27,0,1,1-.53,0V45.77a1,1,0,0,0-1-1.07,1,1,0,0,0-1.07,1.11v1.81a.26.26,0,0,1-.26.27.27.27,0,0,1-.27-.27Z"/><path class="cls-2" d="M159.3,48.87a.24.24,0,0,1-.17-.23.22.22,0,0,1,.23-.22l.13,0a1,1,0,0,0,.39.07c.33,0,.52-.2.71-.64l0,0-1.49-3.15a.4.4,0,0,1,0-.15.27.27,0,0,1,.27-.26.29.29,0,0,1,.27.21l1.23,2.79,1.11-2.8a.26.26,0,0,1,.25-.2.26.26,0,0,1,.26.26.31.31,0,0,1,0,.13L161.07,48c-.31.73-.65,1-1.19,1A1.72,1.72,0,0,1,159.3,48.87Z"/><path class="cls-2" d="M165.56,43.28a.27.27,0,0,1,.26-.27h.07a.3.3,0,0,1,.25.15l1.72,2.59,1.72-2.59a.31.31,0,0,1,.26-.15h.06a.28.28,0,0,1,.27.27v4.33a.28.28,0,1,1-.55,0V44l-1.54,2.26a.27.27,0,0,1-.23.14.28.28,0,0,1-.23-.14L166.09,44v3.59a.27.27,0,0,1-.27.27.26.26,0,0,1-.26-.27Z"/><path class="cls-2" d="M171.26,46.09h0a1.86,1.86,0,0,1,3.71,0v0a1.85,1.85,0,0,1-1.87,1.85A1.82,1.82,0,0,1,171.26,46.09Zm3.16,0h0a1.34,1.34,0,0,0-1.32-1.39,1.31,1.31,0,0,0-1.3,1.37v0a1.33,1.33,0,0,0,1.31,1.38A1.32,1.32,0,0,0,174.42,46.09Z"/><path class="cls-2" d="M175.92,43.06a.26.26,0,0,1,.26-.27.27.27,0,0,1,.27.27V45a1.59,1.59,0,0,1,1.36-.79,1.73,1.73,0,0,1,1.7,1.84v0a1.74,1.74,0,0,1-1.7,1.85,1.59,1.59,0,0,1-1.36-.76v.45a.27.27,0,1,1-.53,0Zm3.05,3h0a1.29,1.29,0,0,0-1.26-1.38,1.32,1.32,0,0,0-1.28,1.37v0a1.32,1.32,0,0,0,1.28,1.37A1.26,1.26,0,0,0,179,46.08Z"/><path class="cls-2" d="M180.48,43.18a.29.29,0,0,1,.31-.28.29.29,0,0,1,.32.28v.09a.3.3,0,0,1-.32.28.29.29,0,0,1-.31-.28Zm.05,1.35a.27.27,0,1,1,.53,0v3.09a.26.26,0,0,1-.26.27.27.27,0,0,1-.27-.27Z"/><path class="cls-2" d="M182.34,43.06a.27.27,0,1,1,.53,0v4.56a.26.26,0,0,1-.26.27.27.27,0,0,1-.27-.27Z"/><path class="cls-2" d="M184.1,43.18a.29.29,0,0,1,.31-.28.29.29,0,0,1,.32.28v.09a.3.3,0,0,1-.32.28.29.29,0,0,1-.31-.28Zm.05,1.35a.26.26,0,0,1,.26-.27.27.27,0,0,1,.27.27v3.09a.27.27,0,1,1-.53,0Z"/><path class="cls-2" d="M185.64,46.82h0c0-.75.62-1.15,1.52-1.15a3.67,3.67,0,0,1,1.09.15v-.13c0-.64-.39-1-1.05-1a2.36,2.36,0,0,0-.93.2.16.16,0,0,1-.09,0,.23.23,0,0,1-.24-.22.24.24,0,0,1,.15-.22,2.67,2.67,0,0,1,1.16-.24,1.57,1.57,0,0,1,1.15.39,1.4,1.4,0,0,1,.36,1v1.94a.25.25,0,0,1-.25.27.25.25,0,0,1-.26-.25v-.33a1.53,1.53,0,0,1-1.28.62A1.2,1.2,0,0,1,185.64,46.82Zm2.62-.28V46.2a3.53,3.53,0,0,0-1-.15c-.67,0-1,.29-1,.73v0c0,.45.41.71.89.71A1.07,1.07,0,0,0,188.26,46.54Z"/><path class="cls-2" d="M189.89,44.53a.27.27,0,1,1,.53,0v.67a1.46,1.46,0,0,1,1.22-1,.25.25,0,0,1,.27.26.26.26,0,0,1-.24.27,1.45,1.45,0,0,0-1.25,1.63v1.21a.27.27,0,1,1-.53,0Z"/><path class="cls-2" d="M192.69,43.18a.29.29,0,0,1,.31-.28.29.29,0,0,1,.32.28v.09a.3.3,0,0,1-.32.28.29.29,0,0,1-.31-.28Zm.05,1.35a.27.27,0,0,1,.26-.27.26.26,0,0,1,.27.27v3.09a.26.26,0,0,1-.26.27.27.27,0,0,1-.27-.27Z"/><path class="cls-2" d="M194.28,46.09h0a1.84,1.84,0,0,1,1.86-1.86A1.82,1.82,0,0,1,198,46.06v0a1.86,1.86,0,0,1-3.71,0Zm3.17,0h0a1.34,1.34,0,0,0-1.32-1.39,1.31,1.31,0,0,0-1.3,1.37v0a1.33,1.33,0,0,0,1.31,1.38A1.32,1.32,0,0,0,197.45,46.09Z"/></svg>