<svg xmlns="http://www.w3.org/2000/svg" viewBox="0 0 75.73 94.96"><defs><style>.cls-1{fill:#1d1d1b;}</style></defs><title>Recurso 2</title><g id="Capa_2" data-name="Capa 2"><g id="Capa_2-2" data-name="Capa 2"><path class="cls-1" d="M38.44,2.31l34.7,20.41L73.71,93H2V22.81L38.44,2.31m0-2.31L0,21.64V95H75.73l-.6-73.38L38.46,0Z"/><path class="cls-1" d="M65,31.75V54.19H42.55V31.75H65m2-2H40.55V56.19H67V29.75Z"/><rect class="cls-1" x="53.09" y="25.7" width="2" height="34.55" transform="translate(-14.54 50.83) rotate(-45)"/><rect class="cls-1" x="36.82" y="41.97" width="34.55" height="2" transform="translate(-14.54 50.83) rotate(-45)"/><path class="cls-1" d="M34,31.75V54.19H11.59V31.75H34m2-2H9.59V56.19H36V29.75Z"/><rect class="cls-1" x="22.12" y="25.7" width="2" height="34.55" transform="translate(-23.61 28.94) rotate(-45)"/><rect class="cls-1" x="5.85" y="41.97" width="34.55" height="2" transform="translate(-23.61 28.94) rotate(-45)"/><path class="cls-1" d="M65,62.72V85.16H42.55V62.72H65m2-2H40.55V87.16H67V60.72Z"/><rect class="cls-1" x="53.09" y="56.66" width="2" height="34.55" transform="translate(-36.44 59.9) rotate(-45)"/><rect class="cls-1" x="36.82" y="72.94" width="34.55" height="2" transform="translate(-36.44 59.9) rotate(-45)"/><path class="cls-1" d="M34,62.72V85.16H11.59V62.72H34m2-2H9.59V87.16H36V60.72Z"/><rect class="cls-1" x="22.12" y="56.66" width="2" height="34.55" transform="translate(-45.51 38.01) rotate(-45)"/><rect class="cls-1" x="5.85" y="72.94" width="34.55" height="2" transform="translate(-45.51 38.01) rotate(-45)"/></g></g></svg>