<svg xmlns="http://www.w3.org/2000/svg" viewBox="0 0 94.88 71.92">
    <defs>
        <style>.cls-1{fill:#434343;}</style>
    </defs><title>Recurso 16</title>
    <g id="Capa_2" data-name="Capa 2">
        <g  id="Capa_2-2" data-name="Capa 2">
            <path class="cls-1" d="M64.17,52.92H16.63a4.37,4.37,0,0,1-4.09-2.79L.53,19.45A7.73,7.73,0,0,1,7.72,8.91H64.57v3H7.72a4.72,4.72,0,0,0-4.4,6.44L15.33,49a1.39,1.39,0,0,0,1.3.88H64.17a1.4,1.4,0,0,0,1.34-1L78.57,3.21A4.45,4.45,0,0,1,82.83,0h12V3h-12a1.45,1.45,0,0,0-1.38,1l-13,45.69A4.42,4.42,0,0,1,64.17,52.92Z"/><path class="cls-1" d="M19.11,60.66A4.13,4.13,0,1,1,15,64.79a4.13,4.13,0,0,1,4.13-4.13m0-3a7.13,7.13,0,1,0,7.13,7.13,7.13,7.13,0,0,0-7.13-7.13Z"/><rect class="cls-1" x="17.61" y="51.42" width="3" height="6.24"/><path class="cls-1" d="M63.68,60.66a4.13,4.13,0,1,1-4.13,4.13,4.13,4.13,0,0,1,4.13-4.13m0-3a7.13,7.13,0,1,0,7.13,7.13,7.13,7.13,0,0,0-7.13-7.13Z"/><rect class="cls-1" x="62.18" y="51.42" width="3" height="6.24"/><rect class="cls-1" x="22.68" y="36.55" width="32.09" height="3"/><rect class="cls-1" x="17.33" y="24.07" width="42.79" height="3"/></g></g></svg>