<svg xmlns="http://www.w3.org/2000/svg" viewBox="0 0 75.97 94.96"><defs><style>.cls-1{fill:#1d1d1b;}</style></defs><title>Recurso 8</title><g id="Capa_2" data-name="Capa 2"><g id="Capa_2-2" data-name="Capa 2"><path class="cls-1" d="M58.41,8.56a17.81,17.81,0,0,1,7.25,34.07V40l-15.5.16V29.93H48.5A16.59,16.59,0,0,0,53.06,9.38,17.82,17.82,0,0,1,58.41,8.56Z" transform="translate(-0.25 -0.25)"/><path class="cls-1" d="M65.66,42.63V95.21H10.81V42.63a17.7,17.7,0,0,0,7.24,1.54H15.74V88.09h5.09V44.17H18.05A17.42,17.42,0,0,0,24.45,43H50.16v-.84a17.81,17.81,0,0,0,15.5.49ZM31.17,88.09V54.85H26.09V88.09Z" transform="translate(-0.25 -0.25)"/><path class="cls-1" d="M65.66,40v2.6a17.81,17.81,0,0,1-15.5-.49v-2Z" transform="translate(-0.25 -0.25)"/><path class="cls-1" d="M53.06,9.38A16.59,16.59,0,0,1,48.5,29.93H41a17.41,17.41,0,0,1-.36-3.56A17.81,17.81,0,0,1,53.06,9.38Z" transform="translate(-0.25 -0.25)"/><path class="cls-1" d="M38.23.25A16.61,16.61,0,0,1,53.06,9.38a17.81,17.81,0,0,0-12.46,17A17.41,17.41,0,0,0,41,29.93H35.5a17.41,17.41,0,0,0,.36-3.56,17.81,17.81,0,0,0-12.45-17A16.59,16.59,0,0,1,38.23.25Z" transform="translate(-0.25 -0.25)"/><path class="cls-1" d="M50.16,42.14V43H24.45A17.26,17.26,0,0,0,29,40.42l18.26-.2A18.39,18.39,0,0,0,50.16,42.14Z" transform="translate(-0.25 -0.25)"/><path class="cls-1" d="M50.16,40.19v2a18.39,18.39,0,0,1-2.92-1.92Z" transform="translate(-0.25 -0.25)"/><path class="cls-1" d="M50.16,29.93V40.19l-2.92,0a17.66,17.66,0,0,1-5.32-7.15,16.59,16.59,0,0,0,6.58-3.14Z" transform="translate(-0.25 -0.25)"/><path class="cls-1" d="M41,29.93H48.5a16.59,16.59,0,0,1-6.58,3.14A18.42,18.42,0,0,1,41,29.93Z" transform="translate(-0.25 -0.25)"/><path class="cls-1" d="M47.24,40.22,29,40.42a17.76,17.76,0,0,0,5.56-7.35,16.42,16.42,0,0,0,7.38,0A17.66,17.66,0,0,0,47.24,40.22Z" transform="translate(-0.25 -0.25)"/><path class="cls-1" d="M41,29.93a18.42,18.42,0,0,0,1,3.14,16.42,16.42,0,0,1-7.38,0,17.56,17.56,0,0,0,1-3.14Z" transform="translate(-0.25 -0.25)"/><path class="cls-1" d="M35.86,26.37a17.41,17.41,0,0,1-.36,3.56H28a16.58,16.58,0,0,1-6.35-13.06,16.33,16.33,0,0,1,1.8-7.49A17.81,17.81,0,0,1,35.86,26.37Z" transform="translate(-0.25 -0.25)"/><path class="cls-1" d="M28,29.93H35.5a17.56,17.56,0,0,1-1,3.14A16.66,16.66,0,0,1,28,29.93Z" transform="translate(-0.25 -0.25)"/><path class="cls-1" d="M34.54,33.07A17.76,17.76,0,0,1,29,40.42l-4.93,0V29.93H28A16.66,16.66,0,0,0,34.54,33.07Z" transform="translate(-0.25 -0.25)"/><path class="cls-1" d="M24.05,40.47l4.93,0A17.26,17.26,0,0,1,24.45,43h-.4Z" transform="translate(-0.25 -0.25)"/><path class="cls-1" d="M28,29.93H24.05V40.47l-13.24.14v2A17.81,17.81,0,0,1,23.41,9.38a16.33,16.33,0,0,0-1.8,7.49A16.58,16.58,0,0,0,28,29.93Z" transform="translate(-0.25 -0.25)"/><path class="cls-1" d="M24.05,43h.4a17.42,17.42,0,0,1-6.4,1.19,17.7,17.7,0,0,1-7.24-1.54v-2l13.24-.14Z" transform="translate(-0.25 -0.25)"/></g></g></svg>