<svg xmlns="http://www.w3.org/2000/svg" viewBox="0 0 94.96 72.38"><defs><style>.cls-1{fill:#1d1d1b;}</style></defs><title>Recurso 13</title><g id="Capa_2" data-name="Capa 2"><g id="Capa_2-2" data-name="Capa 2"><polygon class="cls-1" points="16.24 24.29 0 24.29 0 0 1.32 0 1.32 22.98 14.92 22.98 14.92 0 16.24 0 16.24 24.29"/><rect class="cls-1" x="7.46" width="1.32" height="23.63"/><rect class="cls-1" x="6.14" y="23.63" width="3.96" height="48.74"/><rect class="cls-1" x="90.26" width="4.7" height="72.38"/><rect class="cls-1" x="85.52" width="9.38" height="25.11"/><ellipse class="cls-1" cx="49.8" cy="45.79" rx="11.94" ry="11.82"/><path class="cls-1" d="M49.8,27.05A18.74,18.74,0,1,1,30.87,45.79,18.86,18.86,0,0,1,49.8,27.05m0-7.85A26.59,26.59,0,1,0,76.66,45.79,26.72,26.72,0,0,0,49.8,19.2Z"/></g></g></svg>