<svg xmlns="http://www.w3.org/2000/svg" viewBox="0 0 94.96 34.06"><defs><style>.cls-1{fill:#1d1d1b;}</style></defs><title>Recurso 5</title><g id="Capa_2" data-name="Capa 2"><g id="Capa_2-2" data-name="Capa 2"><rect class="cls-1" x="12.94" y="17.14" width="32.21" height="16.8"/><path class="cls-1" d="M17.35,0H40.73a4.42,4.42,0,0,1,4.42,4.42V12.6a0,0,0,0,1,0,0H12.94a0,0,0,0,1,0,0V4.42A4.42,4.42,0,0,1,17.35,0Z"/><path class="cls-1" d="M5.62,7.45H8.4a0,0,0,0,1,0,0v26.6a0,0,0,0,1,0,0H5.62A5.62,5.62,0,0,1,0,28.44V13.07A5.62,5.62,0,0,1,5.62,7.45Z"/><rect class="cls-1" x="49.79" y="17.14" width="32.21" height="16.8" transform="translate(131.78 51.09) rotate(-180)"/><path class="cls-1" d="M49.74,0H81.95a0,0,0,0,1,0,0V8.19a4.42,4.42,0,0,1-4.42,4.42H54.16a4.42,4.42,0,0,1-4.42-4.42V0a0,0,0,0,1,0,0Z" transform="translate(131.68 12.6) rotate(-180)"/><path class="cls-1" d="M92.17,7.45H95a0,0,0,0,1,0,0v26.6a0,0,0,0,1,0,0H92.17a5.62,5.62,0,0,1-5.62-5.62V13.07A5.62,5.62,0,0,1,92.17,7.45Z" transform="translate(181.51 41.51) rotate(-180)"/></g></g></svg>