<svg xmlns="http://www.w3.org/2000/svg" viewBox="0 0 81.73 94.96"><defs><style>.cls-1{fill:#1d1d1b;}.cls-2{fill:#fff;}.cls-3{fill:none;stroke:#1d1d1b;stroke-miterlimit:10;}</style></defs><title>Recurso 3</title><g id="Capa_2" data-name="Capa 2"><g id="Capa_2-2" data-name="Capa 2"><path class="cls-1" d="M48.81,3.82,82,71.36,33.43,95.21.25,27.68,16.91.25ZM29.05,35.1a11.1,11.1,0,1,0-11.21-11A11.1,11.1,0,0,0,29.05,35.1Z" transform="translate(-0.25 -0.25)"/><path class="cls-2" d="M40,23.89a11.1,11.1,0,1,1-11.21-11A11.1,11.1,0,0,1,40,23.89Z" transform="translate(-0.25 -0.25)"/><path class="cls-3" d="M40,23.89a11.1,11.1,0,1,1-11.21-11A11.1,11.1,0,0,1,40,23.89Z" transform="translate(-0.25 -0.25)"/></g></g></svg>