<svg xmlns="http://www.w3.org/2000/svg" viewBox="0 0 77.4 94.96"><defs><style>.cls-1{fill:#1d1d1b;}</style></defs><title>Recurso 11</title><g id="Capa_2" data-name="Capa 2"><g id="Capa_2-2" data-name="Capa 2"><path class="cls-1" d="M66.17,79.07A11.23,11.23,0,1,1,77.4,67.84,11.25,11.25,0,0,1,66.17,79.07Zm0-19.27a8,8,0,1,0,8,8A8.05,8.05,0,0,0,66.17,59.8Z"/><polygon class="cls-1" points="55.63 65.55 36.13 52.11 0 15.98 2.26 13.72 38.29 49.74 57.44 62.91 55.63 65.55"/><path class="cls-1" d="M36.74,95a11.16,11.16,0,0,1-6.09-1.8h0A11.25,11.25,0,1,1,36.74,95Zm0-19.27a8,8,0,0,0-7.87,9.72,8,8,0,0,0,3.49,5.06h0a8,8,0,1,0,4.38-14.78Z"/><polygon class="cls-1" points="37.36 73.72 36.72 50.49 26.06 0.67 29.19 0 39.91 50.11 40.56 73.63 37.36 73.72"/></g></g></svg>