<svg xmlns="http://www.w3.org/2000/svg" viewBox="0 0 94.22 94.96"><defs>
    <style>.cls-1{fill:white;}</style></defs><title>Recurso 15</title>
    <g id="Capa_2" data-name="Capa 2"><g id="Capa_2-2" data-name="Capa 2">
        <path class="cls-1" d="M47.11,3A24.89,24.89,0,0,1,62,47.82l-.57.41-4.63,3.31,5.35,2A44.25,44.25,0,0,1,91.11,92H3.1A44.26,44.26,0,0,1,32.05,53.49l5.25-1.91-4.49-3.33-1.18-.87A24.89,24.89,0,0,1,47.11,3m0-3A27.89,27.89,0,0,0,29.8,49.76l1.23.91A47.12,47.12,0,0,0,0,95H94.22a47.12,47.12,0,0,0-31-44.29l.6-.43A27.89,27.89,0,0,0,47.11,0Z"/></g></g></svg>